<svg width="14" height="14" viewBox="0 0 14 14" fill="none" xmlns="http://www.w3.org/2000/svg">
    <path d="M7.08236 9.91222V8.24316" stroke="#D1D3D6" stroke-linecap="round" stroke-linejoin="round"/>
    <path fill-rule="evenodd" clip-rule="evenodd" d="M11.1578 2.44727C12.2696 2.44727 13.1643 3.34857 13.1643 4.4604V6.72353C11.5459 7.67089 9.4078 8.24325 7.07888 8.24325C4.74996 8.24325 2.6184 7.67089 1 6.72353V4.45382C1 3.34199 1.90131 2.44727 3.01314 2.44727H11.1578Z" stroke="#D1D3D6" stroke-linecap="round" stroke-linejoin="round"/>
    <path d="M9.38475 2.44472V2.20393C9.38475 1.40131 8.73344 0.75 7.93082 0.75H6.23347C5.43085 0.75 4.77954 1.40131 4.77954 2.20393V2.44472" stroke="#D1D3D6" stroke-linecap="round" stroke-linejoin="round"/>
    <path d="M1.01611 9.12695L1.14045 10.7776C1.22466 11.8901 2.15163 12.7499 3.26675 12.7499H10.8976C12.0127 12.7499 12.9397 11.8901 13.0239 10.7776L13.1482 9.12695" stroke="#D1D3D6" stroke-linecap="round" stroke-linejoin="round"/>
</svg>
