<svg width="17" height="14" viewBox="0 0 17 14" fill="none" xmlns="http://www.w3.org/2000/svg">
    <path d="M1 12.75H15.6087" stroke="#D1D3D6" stroke-linecap="round" stroke-linejoin="round"/>
    <path d="M9.34756 12.75V1.27174C9.34756 1.13337 9.29259 1.00066 9.19475 0.902814C9.0969 0.804969 8.9642 0.75 8.82582 0.75H2.56495C2.42658 0.75 2.29387 0.804969 2.19603 0.902814C2.09818 1.00066 2.04321 1.13337 2.04321 1.27174V12.75" stroke="#D1D3D6" stroke-linecap="round" stroke-linejoin="round"/>
    <path d="M14.565 12.7499V5.44557C14.565 5.30719 14.5101 5.17449 14.4122 5.07664C14.3144 4.9788 14.1817 4.92383 14.0433 4.92383H9.34766" stroke="#D1D3D6" stroke-linecap="round" stroke-linejoin="round"/>
    <path d="M4.13013 3.3584H6.21708" stroke="#D1D3D6" stroke-linecap="round" stroke-linejoin="round"/>
    <path d="M5.17358 7.53223H7.26054" stroke="#D1D3D6" stroke-linecap="round" stroke-linejoin="round"/>
    <path d="M4.13013 10.1416H6.21708" stroke="#D1D3D6" stroke-linecap="round" stroke-linejoin="round"/>
    <path d="M11.4346 10.1416H12.478" stroke="#D1D3D6" stroke-linecap="round" stroke-linejoin="round"/>
    <path d="M11.4346 7.53223H12.478" stroke="#D1D3D6" stroke-linecap="round" stroke-linejoin="round"/>
</svg>
