<svg width="19" height="19" viewBox="0 0 19 19" fill="none" xmlns="http://www.w3.org/2000/svg">
    <path fill-rule="evenodd" clip-rule="evenodd" d="M1 3.51196C1 2.12464 2.11929 1 3.5 1H15.1667C16.5474 1 17.6667 2.12464 17.6667 3.51196V15.2345C17.6667 16.6218 16.5474 17.7464 15.1667 17.7464H3.5C2.11929 17.7464 1 16.6218 1 15.2345V3.51196Z" fill="#ED5151" stroke="#ED5151" stroke-linecap="round" stroke-linejoin="round"/>
    <path fill-rule="evenodd" clip-rule="evenodd" d="M13.4284 6.26875C13.7539 6.59574 13.7539 7.1259 13.4284 7.4529L8.25584 12.8955C7.9304 13.2225 7.40277 13.2225 7.07733 12.8955L4.57733 10.3835C4.25189 10.0565 4.25189 9.52636 4.57733 9.19937C4.90277 8.87238 5.4304 8.87238 5.75584 9.19937L7.66659 11.1193L12.2499 6.26875C12.5754 5.94175 13.103 5.94175 13.4284 6.26875Z" fill="white"/>
</svg>
