<svg width="22" height="22" viewBox="0 0 22 22" fill="none" xmlns="http://www.w3.org/2000/svg">
<path d="M8.20043 19.7714V16.7047C8.20041 15.9246 8.83633 15.2908 9.62423 15.2856H12.5103C13.302 15.2856 13.9437 15.9209 13.9437 16.7047V19.7809C13.9435 20.4432 14.4775 20.9845 15.1463 21H17.0703C18.9883 21 20.5432 19.4607 20.5432 17.5618V8.83784C20.533 8.09083 20.1787 7.38935 19.5812 6.93303L13.0009 1.6853C11.8481 0.771566 10.2094 0.771566 9.05663 1.6853L2.50524 6.94256C1.90547 7.39702 1.5506 8.09967 1.54321 8.84736V17.5618C1.54321 19.4607 3.09809 21 5.01612 21H6.94018C7.62557 21 8.18119 20.4499 8.18119 19.7714" stroke="#D1D3D6" stroke-width="1.5" stroke-linecap="round" stroke-linejoin="round"/>
</svg>
