<svg width="267" height="294" viewBox="0 0 267 294" fill="none" xmlns="http://www.w3.org/2000/svg">
    <circle cx="146" cy="118" r="93" fill="#FADEDF"/>
    <circle cx="26.5" cy="158.5" r="26.5" fill="#FADEDF"/>
    <circle cx="248.5" cy="57.5" r="18.5" fill="#FADEDF"/>
    <ellipse cx="113.924" cy="274.634" rx="21.5" ry="10.5" transform="rotate(-25.1187 113.924 274.634)" fill="#DEEDFA"/>
    <path d="M123.114 28.2873L122.707 29.6439C122.449 30.5033 123.366 31.2411 124.15 30.8054L130.773 27.1258C130.922 27.0433 131.089 27 131.259 27H140.5C141.052 27 141.5 26.5523 141.5 26V11C141.5 10.4477 141.052 10 140.5 10H112C111.448 10 111 10.4477 111 11V26C111 26.5523 111.448 27 112 27H122.156C122.826 27 123.306 27.6457 123.114 28.2873Z" fill="#FFC648"/>
    <circle cx="126" cy="13" r="8" fill="#E84C4F"/>
    <path d="M122.5 13L125 15.5L130 9.5" stroke="white" stroke-width="2"/>
    <path d="M161.754 64.3354L175.271 66.7627C174.98 67.9586 168.304 70.8086 165.002 72.0841L161.754 64.3354Z" fill="#912E04"/>
    <path d="M168.907 70.8274C163.355 74.2359 161.809 68.3795 162.154 65.0566C162.154 65.0566 164.074 62.6927 164.522 62.034C164.97 61.3754 165.862 59.2892 165.862 59.2892L179.189 56.5837L173.831 67.9475C173.532 68.3865 172.736 68.3432 168.907 70.8274Z" fill="#FFA171"/>
    <path d="M161.384 70.3874C160.7 66.574 160.467 66.4692 162.199 64.8754C162.199 64.8754 161.883 70.5088 167.2 70.9397C172.518 71.3706 162.068 74.2008 161.384 70.3874Z" fill="#F37F4E"/>
    <path d="M176.499 62.3107C173.445 64.4464 167.197 63.069 164.5 62.1245L165.806 59.3233L178.786 57.2532L176.499 62.3107Z" fill="#F37F4E"/>
    <path d="M160.629 26.1721C155.802 26.9387 161.713 33.1299 165.271 36.1297C166.743 41.483 171.24 53.5607 177.46 59.0455C183.679 64.5303 185.198 58.5996 185.18 54.9486C194.772 56.8159 196.3 45.7782 195.865 40.0259C201.697 35.5198 198.264 31.6545 195.818 30.2852C196.593 28.1843 197.306 22.3606 193.954 15.8726C190.603 9.38461 184.46 13.1824 181.807 15.8923C179.547 10.7772 176.119 12.3914 174.688 13.8379C172.248 9.86829 166.006 3.26585 160.555 8.61297C155.105 13.9601 158.333 22.547 160.629 26.1721Z" fill="#5E2D1E"/>
    <path d="M160.875 46.0185C161.453 37.5103 165.292 32.26 167.14 30.6983C170.666 34.1954 173.241 32.5718 174.087 31.3229C175.68 36.89 178.98 36.8495 180.432 36.1333C182.922 38.3203 181.128 45.4345 179.92 48.7182C179.494 50.0887 179.68 51.5216 183.835 46.2892C187.989 41.0569 189.566 44.0992 189.835 46.2745C178.688 62.5703 169.577 61.8167 164.489 60.3406C159.401 58.8645 160.154 56.6538 160.875 46.0185Z" fill="#FFA171"/>
    <path d="M179.424 41.0603C178.354 38.8495 175.828 38.4816 174.698 38.5739C174.181 38.3622 174.226 38.0451 174.314 37.913C177.35 37.5829 178.986 39.8737 179.424 41.0603Z" fill="#333333" stroke="black"/>
    <ellipse cx="174.38" cy="42.9265" rx="1.02572" ry="1.63183" transform="rotate(22.2393 174.38 42.9265)" fill="#333333"/>
    <path d="M166.189 33.8855C167.518 33.9858 168.843 35.5249 169.34 36.2819C167.544 34.6613 166.058 34.7388 165.54 34.9802C165.203 34.5735 164.86 33.7853 166.189 33.8855Z" fill="#333333" stroke="black"/>
    <ellipse cx="166.525" cy="39.7151" rx="1.02572" ry="1.63183" transform="rotate(22.2393 166.525 39.7151)" fill="#333333"/>
    <path d="M188.258 46.4353C188.232 46.3965 188.203 46.358 188.172 46.3204C188.068 46.4003 187.864 46.674 187.489 47.3299C186.78 48.5712 185.492 48.394 184.937 48.1502C186.427 45.3426 187.659 45.7083 188.172 46.3204C188.264 46.249 188.276 46.332 188.258 46.4353Z" fill="#F37F4E"/>
    <path d="M172.275 52.1399C171.033 52.499 167.948 52.6205 166.461 52.6842C166.351 53.4453 166.508 54.4162 166.897 55.6832C170.863 58.917 173.646 51.7435 172.275 52.1399Z" fill="#5C0809"/>
    <path d="M171.647 54.9057C170.141 53.5643 167.595 53.8531 166.51 54.1651C166.542 54.581 166.769 55.3792 166.879 55.7264C169.194 57.5796 170.979 55.9251 171.647 54.9057Z" fill="#E84C4F"/>
    <path d="M164.861 47.8497C164.105 47.1374 167.164 44.1905 168.787 42.8061L166.976 48.7144C166.586 48.7229 165.618 48.562 164.861 47.8497Z" fill="#F37F4E"/>
    <path d="M108.734 52.0981L111.939 32.6284L123.581 35.463L120.105 54.8665L108.734 52.0981Z" fill="#333333"/>
    <path d="M174.264 180.675C178.735 175.084 194.691 167.926 202.111 165.046C204.734 167.988 207.265 179.417 208.203 184.764C205.435 184.934 189.608 195.112 182.04 200.179L174.264 180.675Z" fill="#4F4F4F"/>
    <path d="M185.635 128.26C183.704 124.68 181.797 120.176 181.084 118.371C184.545 112.831 192.036 102.284 194.32 104.414C197.174 107.077 199.032 126.052 199.321 128.809C199.609 131.567 187.28 158.556 190.518 161.024C193.756 163.491 193.344 171.885 193.259 174.599C193.174 177.314 191.253 181.261 189.429 180.673C187.969 180.202 185.424 174.979 184.335 172.426L183.912 173.571L182.796 174.211C179.46 166.825 188.048 132.735 185.635 128.26Z" fill="#FFA171"/>
    <path d="M198.32 120.504L184.673 126.299L181.571 120.313C186.027 116.135 195.135 107.962 195.918 108.69C196.7 109.418 197.845 116.869 198.32 120.504Z" fill="#F37F4E"/>
    <path d="M183.887 171.31L184.862 173.61L183.912 173.571L183.887 171.31Z" fill="#F37F4E"/>
    <path d="M99.7219 191.797L101.948 186.005C105.476 185.969 112.491 186.259 112.328 187.717C112.124 189.539 108.349 193.418 105.783 195.481C103.731 197.131 100.887 193.713 99.7219 191.797Z" fill="#FFA171"/>
    <path d="M94.4864 202.855C90.1778 197.296 96.3343 192.145 99.7995 189.705L101.108 187.844C100.989 189.254 100.085 189.975 102.216 191.013C107.921 193.794 116.535 180.488 119.187 183.197C121.308 185.364 120.587 188.944 119.468 190.319C105.436 197.891 98.7951 208.415 94.4864 202.855Z" fill="#F2F2F2"/>
    <path d="M115.23 266.065L117.416 251.961L130.104 248.332L124.856 264.761L115.23 266.065Z" fill="#FFA171"/>
    <path d="M102.453 277.349C102.204 273.642 110.314 265.427 114.401 261.784C119.525 265.335 124.195 263.209 125.889 261.702C126.747 261.99 128.237 263.214 127.339 265.798C126.217 269.027 114.458 280.272 110.666 281.46C107.632 282.411 105.239 281.739 104.422 281.284C103.87 281.517 102.702 281.057 102.453 277.349Z" fill="#F2F2F2"/>
    <path d="M111 280.678C109.095 276.836 104.914 275.325 103.061 275.05C99.2477 283.815 108.264 282.651 111.201 282.022C113.55 281.52 122.711 272.061 126.999 267.394L127.396 265.764C125.22 269.495 115.559 277.261 111 280.678Z" fill="#333333"/>
    <path d="M127.629 255.935L116.923 256.352L116.709 256.443L117.315 251.984L129.397 251.039L127.629 255.935Z" fill="#F37F4E"/>
    <path d="M90.9664 183.441C87.5267 177.229 111.008 152.172 123.179 140.419L171.306 140.428C170.662 138.016 170.104 134.723 173.028 140.848C176.682 148.503 171.932 166.829 155.344 190.814C142.073 210.002 134.351 235.291 130.265 252.402L115.64 253.736C117.346 242.395 117.574 237.124 118.698 224.455C119.837 211.614 126.675 186.105 130.742 174.987C124.958 179.625 112.482 189.044 108.849 189.619C104.307 190.336 95.2661 191.206 90.9664 183.441Z" fill="#E82A2A"/>
    <path d="M151.934 186.659C160.78 174.763 165.493 157.97 166.743 151.061C169.013 144.496 173.664 134.501 174.103 147.046C174.651 162.727 159.585 185.979 156.025 189.959C152.465 193.938 145.581 207.234 140.389 219.886C136.236 230.007 131.902 245.811 130.254 252.448L115.877 253.554L128.18 249.927C132.412 233.795 143.087 198.556 151.934 186.659Z" fill="#CD1B1B"/>
    <path d="M98.6549 200.319C97.3496 198.428 94.8058 196.551 93.697 195.849C90.1061 204.764 96.3291 205.208 99.8894 204.315C106.378 199.673 119.378 190.374 119.468 190.319C119.558 190.264 119.901 189.593 120.061 189.264L100.077 203.545C100.147 203.258 99.9601 202.211 98.6549 200.319Z" fill="#333333"/>
    <path d="M135.643 163.499C134.068 167.146 130.912 174.574 130.897 175.107C130.328 176.744 113.356 187.632 110.753 189.061C108.978 190.036 104.673 190.076 101.878 189.934C101.388 189.987 100.953 189.961 100.581 189.847C100.953 189.879 101.393 189.909 101.878 189.934C108.849 189.179 126.935 172.379 135.643 163.499Z" fill="#CD1B1B"/>
    <path d="M111.468 101.181C116.29 102.816 131.18 97.3433 138.023 94.4026C136.585 88.0864 131.815 76.8544 124.232 82.4556C114.754 89.4571 117.378 54.6345 118.833 52.2056C120.288 49.7767 114.417 43.9326 113.408 43.543C112.601 43.2314 110.439 45.5553 109.459 46.7562L111.312 39.1458C109.815 40.3009 106.442 43.3824 104.923 46.4675C103.024 50.324 108.954 60.2612 109.664 63.4571C110.373 66.6529 105.439 99.1376 111.468 101.181Z" fill="#FFA171"/>
    <path d="M109.955 99.709C114.839 101.09 121.531 88.8197 124.267 82.5118L124.585 99.3363C123.144 99.8013 119.289 100.868 115.393 101.417C111.497 101.966 110.144 100.507 109.955 99.709Z" fill="#F37F4E"/>
    <path d="M111.406 63.5934L108.308 59.96C109.889 63.3201 109.749 64.4857 109.71 65.4358C110.03 64.1221 110.853 63.7627 111.406 63.5934Z" fill="#F37F4E"/>
    <path d="M116.712 56.5838C117.228 56.0378 117.89 55.0951 118.621 52.682L118.086 55.6707C118.086 55.6707 117.907 56.011 117.558 56.2619C117.209 56.5129 116.712 56.5838 116.712 56.5838Z" fill="#F37F4E"/>
    <path d="M175.327 66.7283C162.506 75.0848 160.925 68.5961 162.4 64.4445C156.438 58.6552 134.706 71.8257 124.403 78.9944L122.63 105.003L141.432 93.4092C140.576 102.913 126.294 127.728 117.967 143.072C134.686 163.803 163.702 153.039 176.045 146.559C173.692 143.453 173.953 126.312 175.745 112.512L179.185 124.003L200.677 108.458C189.993 101.49 192.324 79.696 175.327 66.7283Z" fill="#FFC648"/>
    <path d="M170.01 101.183L175.778 112.377C174.344 121.893 174.479 135.909 174.726 141.728C168.256 123.837 168.886 107.244 170.01 101.183Z" fill="#EEA320"/>
    <path d="M141.433 93.6014L142.695 89.2061C142.695 89.2061 139.627 92.346 133.501 94.6453C127.375 96.9446 123.222 96.4613 123.222 96.4613L122.63 105.003L141.432 93.4092L141.433 93.6014Z" fill="#EEA320"/>
</svg>
