<svg width="14" height="14" viewBox="0 0 14 14" fill="none" xmlns="http://www.w3.org/2000/svg">
    <path fill-rule="evenodd" clip-rule="evenodd" d="M7 0C3.13401 0 0 3.13401 0 7C0 10.866 3.13401 14 7 14C10.866 14 14 10.866 14 7C14 3.13401 10.866 0 7 0ZM1.11747 5.51074C0.997217 5.98723 0.933333 6.48616 0.933333 7C0.933333 9.86868 2.92441 12.2723 5.6 12.9043V12.3266L4.66667 11.3933V9.9933L3.73333 9.05997V7.93333C3.73333 7.6756 3.94227 7.46667 4.2 7.46667H7.93333C8.70653 7.46667 9.33333 8.09347 9.33333 8.86667V9.34436C9.81022 9.41257 10.1874 9.78978 10.2556 10.2667H12.113C12.7167 9.32372 13.0667 8.20273 13.0667 7C13.0667 4.47633 11.5257 2.31256 9.33337 1.3983V2.33333C9.33337 3.10653 8.70657 3.73333 7.93337 3.73333H7.00004C6.7423 3.73333 6.53337 3.94227 6.53337 4.2C6.53337 4.9732 5.90657 5.6 5.13337 5.6H4.6667V6.25997L4.25665 6.67002C3.70992 7.21675 2.82349 7.21675 2.27675 6.67002L1.11747 5.51074Z" fill="#D1D3D6"/>
</svg>
