<svg width="289" height="240" viewBox="0 0 289 240" fill="none" xmlns="http://www.w3.org/2000/svg">
    <path d="M42.3176 217.683C98.7575 247.165 190.224 247.165 246.65 217.683C303.077 188.202 303.09 140.42 246.65 110.939C190.21 81.4572 98.7443 81.4638 42.3176 110.939C-14.1092 140.414 -14.1025 188.208 42.3176 217.683Z" fill="#FADEDF"/>
    <path d="M25.5781 170.687H27.9552C29.0448 167.049 29.759 163.309 30.0867 159.525C30.6046 152.52 27.2116 141.796 20.9965 138.204C14.7815 134.612 11.415 139.054 13.5 142.852C15.5849 146.65 22.6167 157.453 22.7096 166.749L25.5781 170.687Z" fill="#E84C4F"/>
    <path d="M25.0069 170.686H25.6709C26.3197 166.098 26.3197 161.442 25.6709 156.854C24.5952 147.764 21.6072 143.541 18.8317 140.606C18.771 140.542 18.6872 140.505 18.5987 140.502C18.5103 140.5 18.4245 140.532 18.3603 140.593C18.296 140.654 18.2585 140.738 18.256 140.826C18.2535 140.914 18.2862 141 18.347 141.065C21.0495 143.913 23.9578 148.03 24.987 156.927C25.6448 161.489 25.6515 166.122 25.0069 170.686Z" fill="white"/>
    <path d="M25.7705 170.686C24.5487 164.922 18.9977 158.07 13.7587 156.888C7.68311 155.56 4.72831 158.767 5.59815 161.536C6.46799 164.305 11.2687 165.593 15.93 167.764C17.4995 168.491 18.9343 169.478 20.173 170.686H25.7705Z" fill="#E84C4F"/>
    <path d="M23.5592 170.687H24.2696C21.7 164.226 15.8568 159.618 11.076 159.193C11.0327 159.189 10.9889 159.193 10.9473 159.205C10.9056 159.218 10.867 159.239 10.8335 159.267C10.8001 159.295 10.7726 159.329 10.7526 159.368C10.7327 159.406 10.7207 159.449 10.7174 159.492C10.7119 159.535 10.7153 159.58 10.7276 159.622C10.7399 159.664 10.7607 159.703 10.7887 159.736C10.8168 159.77 10.8514 159.798 10.8906 159.817C10.9297 159.837 10.9725 159.848 11.0162 159.851C15.5314 160.256 21.0492 164.585 23.5592 170.687Z" fill="white"/>
    <path d="M240.116 109.937L245.09 112.546L245.508 109.432C243.045 102.487 245.07 94.6117 247.732 91.3315C250.395 88.0514 249.884 85.641 248.921 84.5654C247.958 83.4897 244.306 82.673 240.694 86.896C237.082 91.119 236.252 96.2451 236.856 101.418C237.241 104.651 238.941 107.971 240.116 109.937Z" fill="#E84C4F"/>
    <path opacity="0.2" d="M240.116 109.937L245.09 112.546L245.508 109.432C243.045 102.487 245.07 94.6117 247.732 91.3315C250.395 88.0514 249.884 85.641 248.921 84.5654C247.958 83.4897 244.306 82.673 240.694 86.896C237.082 91.119 236.252 96.2451 236.856 101.418C237.241 104.651 238.941 107.971 240.116 109.937Z" fill="black"/>
    <path d="M242.168 111.012L243.151 111.53C243.141 111.511 243.13 111.493 243.117 111.477C241.71 109.803 239.89 101.61 240.654 96.8089C241.597 90.8794 244.638 87.0083 247.241 85.3682C247.273 85.3486 247.3 85.3228 247.322 85.2923C247.344 85.2618 247.359 85.2272 247.367 85.1907C247.375 85.1541 247.376 85.1163 247.369 85.0795C247.362 85.0427 247.348 85.0076 247.327 84.9765C247.285 84.913 247.22 84.8685 247.145 84.8523C247.071 84.8362 246.993 84.8498 246.929 84.8901C244.273 86.5966 241.059 90.6005 240.083 96.7226C239.379 101.191 240.787 108.27 242.168 111.012Z" fill="white"/>
    <path d="M245.189 98.0841C246.644 101.65 246.637 103.396 244.266 103.761C242.128 104.08 239.532 106.676 241.942 110.893L256.046 118.29C256.081 117.501 256.276 116.728 256.618 116.017C256.961 115.306 257.444 114.672 258.038 114.153C260.355 111.836 262.493 110.089 262.161 107.513C261.829 104.937 259.592 102.453 259.22 100.209C258.848 97.9646 259.99 96.683 262.427 94.1665C264.864 91.6499 267.075 87.7456 263.821 85.9661C260.568 84.1866 256.843 87.2343 255.289 89.2861C253.735 91.3378 252.314 92.2409 249.253 92.0682C246.192 91.8956 243.735 94.5184 245.189 98.0841Z" fill="#E84C4F"/>
    <path d="M249.18 114.692C249.114 103.749 256.955 90.9341 261.318 88.3445C261.382 88.3034 261.428 88.2392 261.447 88.1651C261.465 88.091 261.455 88.0126 261.417 87.9461C261.378 87.8822 261.315 87.8362 261.242 87.8176C261.169 87.799 261.091 87.8094 261.026 87.8465C256.603 90.5025 248.695 103.324 248.609 114.406L249.18 114.692Z" fill="white"/>
    <path d="M251.278 103.316C251.218 103.33 251.155 103.323 251.1 103.296C251.044 103.27 250.999 103.225 250.973 103.17C249.706 100.807 248.64 98.3413 247.785 95.7997C247.774 95.7639 247.77 95.7263 247.773 95.6889C247.776 95.6515 247.787 95.6152 247.804 95.5819C247.821 95.5486 247.845 95.519 247.874 95.4949C247.902 95.4707 247.936 95.4524 247.971 95.4411C248.007 95.4298 248.045 95.4256 248.082 95.4288C248.119 95.432 248.156 95.4425 248.189 95.4598C248.222 95.4771 248.252 95.5007 248.276 95.5294C248.3 95.5581 248.318 95.5913 248.33 95.627C249.176 98.1334 250.229 100.565 251.477 102.898C251.513 102.966 251.52 103.045 251.498 103.118C251.475 103.191 251.425 103.253 251.358 103.29L251.278 103.316Z" fill="white"/>
    <path d="M249.393 110.023C249.338 110.033 249.282 110.028 249.23 110.008C249.179 109.988 249.134 109.954 249.1 109.91C249.057 109.846 249.04 109.768 249.053 109.692C249.067 109.617 249.11 109.549 249.173 109.505C252.033 107.503 255.502 106.564 258.981 106.849C259.056 106.859 259.125 106.898 259.172 106.958C259.219 107.019 259.239 107.095 259.23 107.171C259.22 107.247 259.181 107.315 259.12 107.362C259.06 107.409 258.983 107.43 258.908 107.42C255.577 107.166 252.259 108.059 249.505 109.95C249.473 109.981 249.435 110.006 249.393 110.023Z" fill="white"/>
    <path d="M20.5916 167.863L93.0605 209.695C93.9515 210.147 94.9366 210.383 95.9357 210.383C96.9348 210.383 97.9198 210.147 98.8108 209.695L257.593 118.063C259.18 117.147 259.18 115.66 257.593 114.743L185.124 72.9113C184.234 72.4561 183.249 72.2188 182.249 72.2188C181.249 72.2188 180.264 72.4561 179.374 72.9113L20.5916 164.543C19.0046 165.46 19.0046 166.947 20.5916 167.863Z" fill="#455A64"/>
    <path d="M59.7609 187.285C60.9964 187.908 62.361 188.233 63.7449 188.233C65.1288 188.233 66.4933 187.908 67.7289 187.285C69.94 186.01 69.94 183.965 67.7289 182.67C66.4943 182.043 65.1293 181.717 63.7449 181.717C62.3604 181.717 60.9955 182.043 59.7609 182.67C57.5498 183.965 57.5498 186.023 59.7609 187.285Z" fill="#263238"/>
    <path d="M94.4217 209.696L21.9528 167.864C20.5318 167.041 20.3857 165.766 21.5079 164.85C20.7991 165.41 20.2164 166.114 19.7976 166.915C19.3789 167.716 19.1336 168.596 19.0776 169.498V172.2C19.1321 173.198 19.4208 174.168 19.9203 175.034C20.4199 175.899 21.1161 176.634 21.9528 177.18L94.4217 219.012C95.3078 219.475 96.2975 219.704 97.2968 219.676V210.387C96.2952 210.406 95.3054 210.168 94.4217 209.696Z" fill="#37474F"/>
    <path d="M257.586 127.373C258.425 126.829 259.123 126.094 259.624 125.229C260.125 124.363 260.414 123.392 260.468 122.393V119.691C260.414 118.788 260.169 117.906 259.749 117.105C259.329 116.304 258.743 115.601 258.031 115.043C259.16 115.959 259.014 117.234 257.593 118.051L98.8107 209.696C97.924 210.157 96.9347 210.386 95.9355 210.36V219.703C96.9347 219.728 97.924 219.5 98.8107 219.039L257.586 127.373Z" fill="#263238"/>
    <path d="M104.999 201.029L35.638 160.963C34.6819 160.412 34.6819 159.516 35.638 158.971L169.713 81.5423C170.248 81.2706 170.839 81.1289 171.439 81.1289C172.039 81.1289 172.631 81.2706 173.166 81.5423L242.554 121.601C243.503 122.153 243.503 123.042 242.554 123.593L108.426 201.029C107.894 201.297 107.308 201.436 106.713 201.436C106.118 201.436 105.531 201.297 104.999 201.029Z" fill="white"/>
    <path d="M77.0513 178.66L85.1455 173.985L82.4496 172.432L74.3555 177.1L77.0513 178.66Z" fill="#E84C4F"/>
    <path d="M174.155 122.597L182.249 117.923L179.547 116.369L171.459 121.044L174.155 122.597Z" fill="#E84C4F"/>
    <path d="M190.336 113.256L198.431 108.581L195.735 107.027L187.641 111.695L190.336 113.256Z" fill="#E84C4F"/>
    <path d="M216.312 96.889C216.627 97.0462 216.973 97.1281 217.325 97.1281C217.676 97.1281 218.023 97.0462 218.338 96.889C218.459 96.8474 218.565 96.7686 218.64 96.6639C218.715 96.5591 218.755 96.4335 218.755 96.3047C218.755 96.1759 218.715 96.0503 218.64 95.9456C218.565 95.8408 218.459 95.7621 218.338 95.7204C218.024 95.5601 217.677 95.4766 217.325 95.4766C216.973 95.4766 216.626 95.5601 216.312 95.7204C216.19 95.7621 216.085 95.8408 216.01 95.9456C215.935 96.0503 215.895 96.1759 215.895 96.3047C215.895 96.4335 215.935 96.5591 216.01 96.6639C216.085 96.7686 216.19 96.8474 216.312 96.889Z" fill="#263238"/>
    <path d="M219.546 106.058C220.173 106.376 220.865 106.541 221.568 106.541C222.27 106.541 222.963 106.376 223.59 106.058C224.705 105.394 224.705 104.365 223.59 103.721C222.963 103.404 222.27 103.238 221.568 103.238C220.865 103.238 220.173 103.404 219.546 103.721C218.431 104.365 218.431 105.414 219.546 106.058Z" fill="#263238"/>
    <path d="M216.691 101.994C217.434 101.563 217.394 100.846 216.604 100.387L203.324 92.705C202.897 92.4759 202.421 92.3516 201.936 92.3424C201.451 92.3331 200.971 92.4392 200.535 92.6519C199.792 93.0835 199.832 93.8006 200.622 94.2588L213.942 101.941C214.364 102.163 214.833 102.284 215.31 102.293C215.787 102.302 216.26 102.2 216.691 101.994Z" fill="#263238"/>
    <path d="M88.4458 173.202C95.1589 177.067 110.896 174.258 123.598 166.921L158.491 146.782C171.194 139.445 176.041 130.374 169.314 126.516C162.588 122.659 146.838 125.481 134.122 132.811L99.2956 152.924C86.5999 160.254 81.7394 169.358 88.4458 173.202Z" fill="#FADEDF"/>
    <path d="M190.038 4.36697H190.071L195.815 1.04697H195.861C199.48 -0.785671 204.314 -0.281027 209.52 3.10537C219.984 9.83833 227.972 25.3759 227.368 37.7994C227.062 43.9945 224.712 48.2441 221.08 50.1166H221.047L215.296 53.4366H215.257C211.638 55.2758 206.797 54.7646 201.585 51.3848C191.127 44.6452 183.139 29.1143 183.743 16.6908C184.062 10.4891 186.446 6.23945 190.038 4.36697Z" fill="#37474F"/>
    <path d="M215.588 53.2641L221.066 50.0769H221.106C224.705 48.1978 227.082 43.9482 227.388 37.7597C227.653 32.2219 226.212 26.0666 223.609 20.3496L217.859 23.6696C220.469 29.3866 221.91 35.5419 221.637 41.0863C221.352 47.1287 219.068 51.3319 215.588 53.2641Z" fill="#263238"/>
    <path d="M201.611 51.3781C191.153 44.6385 183.165 29.1075 183.769 16.6841C184.374 4.26067 193.358 -0.354126 203.796 6.37883C214.234 13.1118 222.248 28.6494 221.644 41.0728C221.04 53.4963 212.069 58.1111 201.611 51.3781Z" fill="#455A64"/>
    <path d="M210.376 50.5014C216.545 50.8002 217.547 43.8614 217.68 40.8734C218.211 29.9174 210.867 15.6414 201.644 9.69858C199.679 8.32203 197.392 7.47581 195.004 7.24177C188.843 6.94297 187.84 13.8818 187.7 16.8698C187.169 27.8258 194.506 42.1018 203.736 48.0778C205.701 49.4543 207.988 50.3005 210.376 50.5346V50.5014Z" fill="#FAFAFA"/>
    <path d="M201.499 30.9331C201.571 30.9334 201.643 30.9198 201.711 30.8933C201.85 30.8483 201.97 30.7589 202.052 30.6389C202.135 30.5189 202.176 30.3749 202.169 30.2293V14.4062C202.169 14.2301 202.099 14.0612 201.975 13.9367C201.85 13.8121 201.681 13.7422 201.505 13.7422C201.329 13.7422 201.16 13.8121 201.036 13.9367C200.911 14.0612 200.841 14.2301 200.841 14.4062V28.3037L193.451 18.8085C193.342 18.6676 193.181 18.5759 193.004 18.5535C192.827 18.5311 192.649 18.5798 192.508 18.689C192.367 18.7982 192.275 18.9588 192.253 19.1357C192.23 19.3125 192.279 19.491 192.388 19.6319L200.987 30.6742C201.048 30.7528 201.125 30.8169 201.213 30.8617C201.302 30.9065 201.399 30.9309 201.499 30.9331Z" fill="#37474F"/>
    <path d="M205.31 42.6398C205.34 42.6459 205.372 42.6459 205.403 42.6398C205.473 42.6182 205.532 42.5703 205.568 42.5059C205.604 42.4416 205.614 42.3658 205.595 42.2945L201.87 29.7516C201.849 29.6803 201.8 29.6203 201.735 29.5848C201.67 29.5493 201.593 29.5412 201.522 29.5623C201.45 29.5835 201.39 29.6321 201.355 29.6974C201.319 29.7628 201.311 29.8396 201.332 29.9109L205.051 42.4539C205.07 42.5076 205.105 42.5543 205.151 42.5875C205.197 42.6208 205.253 42.639 205.31 42.6398Z" fill="#E84C4F"/>
    <path d="M201.711 27.0891C200.476 26.2989 199.42 26.8434 199.354 28.3042C199.358 29.101 199.55 29.8856 199.914 30.594C200.279 31.3025 200.806 31.9148 201.452 32.3812C202.68 33.178 203.736 32.6335 203.809 31.1727C203.803 30.3753 203.611 29.5903 203.246 28.8811C202.882 28.1718 202.356 27.558 201.711 27.0891Z" fill="#E84C4F"/>
    <path d="M93.2398 169.318L101.327 164.644L98.6315 163.09L90.5439 167.758L93.2398 169.318Z" fill="#E84C4F"/>
    <path d="M109.421 159.974L117.516 155.3L114.813 153.746L106.726 158.414L109.421 159.974Z" fill="#E84C4F"/>
    <path d="M106.095 158.069C106.095 161.974 103.359 166.701 99.9791 168.693C98.1797 169.736 96.5595 169.769 95.444 168.985C94.9942 168.632 94.6249 168.187 94.3604 167.68C94.096 167.173 93.9425 166.615 93.9102 166.044C94.1373 165.938 94.3589 165.82 94.5742 165.692C97.9539 163.747 100.69 158.999 100.69 155.068C100.693 154.777 100.675 154.487 100.636 154.198C101.143 153.93 101.7 153.771 102.271 153.729C102.843 153.688 103.417 153.767 103.956 153.959C105.284 154.517 106.095 155.958 106.095 158.069Z" fill="#263238"/>
    <path d="M106.646 150.047L106.533 149.981C104.833 149.078 102.549 149.244 99.9792 150.718C94.7668 153.726 90.5371 161.043 90.5371 167.066C90.5371 170.094 91.6062 172.212 93.3326 173.194C95.059 174.177 97.3896 174.011 99.9726 172.53C105.185 169.523 109.408 162.199 109.408 156.176C109.415 153.148 108.366 151.03 106.646 150.047ZM100.006 168.679C98.1997 169.722 96.5795 169.755 95.464 168.965C94.4813 168.301 93.8837 166.973 93.8837 165.147C93.8837 161.249 96.626 156.515 100.006 154.523C101.546 153.633 102.947 153.48 103.99 153.938C105.278 154.49 106.088 155.93 106.088 158.055C106.095 161.986 103.359 166.734 99.9792 168.693L100.006 168.679Z" fill="#37474F"/>
    <path d="M104.302 154.118L104.229 154.078C103.127 153.487 101.633 153.6 99.9795 154.549C96.5997 156.501 93.8574 161.249 93.8574 165.173C93.8574 167.165 94.5214 168.493 95.6701 169.157C96.8189 169.821 98.3261 169.688 99.9795 168.719C103.359 166.767 106.095 162.019 106.095 158.095C106.095 156.129 105.411 154.748 104.302 154.118ZM99.9795 167.298C98.532 168.135 97.2305 168.161 96.3275 167.524C95.544 166.973 95.0593 165.917 95.0593 164.456C95.1523 162.749 95.6463 161.088 96.5011 159.608C97.356 158.128 98.5477 156.87 99.9795 155.937C100.445 155.612 100.979 155.4 101.541 155.319C102.102 155.237 102.675 155.287 103.213 155.465C104.249 155.91 104.9 157.066 104.9 158.785C104.807 160.491 104.313 162.151 103.459 163.631C102.604 165.11 101.412 166.366 99.9795 167.298Z" fill="#E84C4F"/>
    <path d="M125.603 150.627L133.697 145.959L131.001 144.398L122.907 149.073L125.603 150.627Z" fill="#E84C4F"/>
    <path d="M141.791 141.283L149.879 136.615L147.183 135.055L139.089 139.729L141.791 141.283Z" fill="#E84C4F"/>
    <path d="M157.973 131.941L166.061 127.273L163.365 125.713L155.271 130.387L157.973 131.941Z" fill="#E84C4F"/>
    <path d="M117.701 88.4945C117.786 88.3816 117.904 88.2985 118.039 88.2573C118.174 88.2162 118.319 88.2192 118.452 88.2658C118.585 88.3124 118.7 88.4003 118.78 88.5166C118.86 88.633 118.901 88.7718 118.897 88.9129C118.948 89.2908 118.91 89.6757 118.784 90.0358C118.658 90.396 118.449 90.7211 118.173 90.9845C117.642 91.4427 117.104 91.2568 116.978 90.5662C116.926 90.1883 116.965 89.8036 117.091 89.4435C117.217 89.0834 117.426 88.7582 117.701 88.4945Z" fill="#E84C4F"/>
    <path d="M123.93 91.4302L118.518 88.3027L117.33 91.1646L122.761 94.2987L123.93 91.4302Z" fill="#E84C4F"/>
    <path d="M123.1 91.6094C123.631 91.1579 124.162 91.3438 124.295 92.0344C124.344 92.4117 124.303 92.7953 124.176 93.1541C124.049 93.5129 123.84 93.8367 123.565 94.0994C123.033 94.5576 122.496 94.3717 122.369 93.6811C122.321 93.3027 122.362 92.9183 122.489 92.5585C122.615 92.1988 122.825 91.8737 123.1 91.6094Z" fill="#E84C4F"/>
    <path d="M164.693 117.798C164.693 117.93 164.693 118.05 164.693 118.183C164.693 118.448 164.693 118.721 164.693 118.993C163.617 118.535 162.216 118.687 160.676 119.577C157.296 121.529 154.553 126.277 154.553 130.201C154.553 132.02 155.151 133.335 156.134 134.019C155.858 134.215 155.572 134.397 155.277 134.564L154.965 134.723L154.029 138.249L148.611 135.228C146.898 134.238 145.842 132.127 145.842 129.112C145.842 123.09 150.065 115.772 155.277 112.758C157.854 111.27 160.184 111.118 161.917 112.094L167.229 115.069L167.342 115.135L164.693 117.798Z" fill="#455A64"/>
    <path d="M167.335 115.075L167.222 115.008C165.523 114.105 163.238 114.271 160.669 115.745C155.456 118.753 151.227 126.071 151.227 132.093C151.227 135.121 152.296 137.239 154.022 138.222C155.748 139.205 158.079 139.039 160.662 137.558C165.874 134.55 170.097 127.226 170.097 121.204C170.117 118.176 169.048 116.058 167.335 115.075ZM160.695 133.707C158.889 134.749 157.269 134.782 156.153 133.992C155.171 133.328 154.573 132 154.573 130.174C154.573 126.276 157.315 121.542 160.695 119.55C162.236 118.66 163.637 118.508 164.712 118.966C166.001 119.517 166.811 120.958 166.811 123.083C166.797 127.014 164.048 131.761 160.669 133.707H160.695Z" fill="#37474F"/>
    <path d="M166.798 123.11C166.798 127.015 164.062 131.742 160.682 133.734C158.883 134.777 157.263 134.81 156.147 134.027C155.697 133.673 155.328 133.228 155.064 132.721C154.799 132.214 154.646 131.656 154.613 131.085C154.84 130.979 155.062 130.861 155.277 130.733C158.657 128.788 161.393 124.04 161.393 120.109C161.396 119.818 161.378 119.528 161.34 119.239C161.846 118.971 162.403 118.812 162.974 118.77C163.546 118.729 164.12 118.808 164.66 119C165.974 119.558 166.798 120.986 166.798 123.11Z" fill="#263238"/>
    <path d="M164.992 119.146L164.919 119.1C163.816 118.515 162.316 118.622 160.669 119.578C157.289 121.53 154.547 126.271 154.547 130.202C154.547 132.194 155.211 133.522 156.36 134.186C157.508 134.85 159.016 134.71 160.669 133.741C164.049 131.795 166.784 127.048 166.784 123.117C166.798 121.158 166.134 119.784 164.992 119.146ZM160.669 132.32C159.215 133.163 157.913 133.19 157.017 132.552C156.227 132.001 155.749 130.946 155.749 129.485C155.842 127.778 156.336 126.117 157.191 124.637C158.045 123.157 159.237 121.899 160.669 120.966C161.904 120.249 163.033 120.122 163.896 120.494C164.932 120.939 165.583 122.094 165.583 123.814C165.49 125.519 164.997 127.177 164.143 128.655C163.29 130.133 162.099 131.389 160.669 132.32Z" fill="#E84C4F"/>
    <path d="M155.271 125.096L170.543 116.278C172.316 115.248 166.559 109.239 162.276 108.834C159.918 108.549 157.527 108.776 155.264 109.498C155.264 109.498 158.524 113.675 157.967 116.045C157.409 118.416 155.271 125.096 155.271 125.096Z" fill="#E84C4F"/>
    <path d="M133.697 100.176C133.697 100.176 155.835 111.344 156.791 112.015C157.747 112.686 156.791 120.474 155.27 125.096C153.75 129.717 151.413 136.822 150.476 138.814C149.54 140.806 148.318 141.55 146.074 142.844L130.138 152.054L108.565 154.684L99.999 150.036L102.23 136.019C102.23 136.019 125.158 123.821 128.299 122.008C131.439 120.195 140.729 111.69 133.697 100.176Z" fill="#E84C4F"/>
    <path opacity="0.2" d="M133.697 100.176C133.697 100.176 155.835 111.344 156.791 112.015C157.747 112.686 156.791 120.474 155.27 125.096C153.75 129.717 151.413 136.822 150.476 138.814C149.54 140.806 148.318 141.55 146.074 142.844L130.138 152.054L108.565 154.684L99.999 150.036L102.23 136.019C102.23 136.019 125.158 123.821 128.299 122.008C131.439 120.195 140.729 111.69 133.697 100.176Z" fill="black"/>
    <path d="M157.216 122.432C159.208 117.08 160.695 112.645 160.443 109.65C160.138 106.098 158.81 103.196 152.953 101.735C147.097 100.274 138.909 100.301 138.909 100.301L136.419 101.742C136.419 101.742 153.258 111.502 155.171 112.565C156.339 113.229 157.588 116.157 155.297 125.101L155.689 125.327C155.881 125.446 156.579 124.152 157.216 122.432Z" fill="#E84C4F"/>
    <path opacity="0.3" d="M157.216 122.432C159.208 117.08 160.695 112.645 160.443 109.65C160.138 106.098 158.81 103.196 152.953 101.735C147.097 100.274 138.909 100.301 138.909 100.301L136.419 101.742C136.419 101.742 153.258 111.502 155.171 112.565C156.339 113.229 157.588 116.157 155.297 125.101L155.689 125.327C155.881 125.446 156.579 124.152 157.216 122.432Z" fill="white"/>
    <path d="M144.461 106.404L147.183 104.851C147.183 104.851 147.024 95.4151 143.053 93.1243C139.082 90.8335 125.603 92.3939 125.603 92.3939L122.907 93.9477L144.461 106.404Z" fill="#E84C4F"/>
    <path d="M135.629 95.2821C134.335 96.0325 134.335 97.2409 135.629 97.9846C136.355 98.3543 137.158 98.547 137.973 98.547C138.788 98.547 139.591 98.3543 140.317 97.9846C141.605 97.2409 141.605 96.0258 140.317 95.2821C139.59 94.9156 138.787 94.7246 137.973 94.7246C137.159 94.7246 136.356 94.9156 135.629 95.2821Z" fill="#F0F0F0"/>
    <path d="M139.773 99.7896C138.863 100.321 138.863 101.177 139.773 101.702C140.287 101.965 140.856 102.102 141.433 102.102C142.01 102.102 142.579 101.965 143.093 101.702C144.009 101.177 144.009 100.321 143.093 99.7896C142.578 99.5298 142.01 99.3945 141.433 99.3945C140.856 99.3945 140.288 99.5298 139.773 99.7896Z" fill="#F0F0F0"/>
    <path d="M129.342 94.0796C128.425 94.6041 128.425 95.4607 129.342 95.9919C129.856 96.2516 130.425 96.3869 131.002 96.3869C131.578 96.3869 132.147 96.2516 132.662 95.9919C133.578 95.4607 133.578 94.6041 132.662 94.0796C132.148 93.8167 131.579 93.6797 131.002 93.6797C130.424 93.6797 129.855 93.8167 129.342 94.0796Z" fill="#F0F0F0"/>
    <path d="M144.885 103.667C145.417 103.209 145.948 103.395 146.081 104.085C146.13 104.464 146.089 104.848 145.962 105.208C145.835 105.568 145.626 105.893 145.35 106.157C145.266 106.27 145.147 106.353 145.012 106.394C144.877 106.435 144.733 106.432 144.599 106.386C144.466 106.339 144.351 106.251 144.271 106.135C144.191 106.019 144.151 105.88 144.155 105.739C144.104 105.36 144.143 104.975 144.27 104.615C144.397 104.255 144.608 103.93 144.885 103.667Z" fill="#E84C4F"/>
    <path d="M151.081 106.602L145.662 103.475L144.48 106.336L149.905 109.464L151.081 106.602Z" fill="#E84C4F"/>
    <path d="M150.244 106.782C150.329 106.669 150.447 106.586 150.582 106.544C150.717 106.503 150.862 106.506 150.995 106.553C151.128 106.6 151.243 106.687 151.323 106.804C151.403 106.92 151.444 107.059 151.439 107.2C151.49 107.578 151.45 107.963 151.323 108.324C151.196 108.684 150.986 109.009 150.709 109.272C150.178 109.73 149.646 109.537 149.514 108.853C149.464 108.475 149.505 108.09 149.631 107.73C149.758 107.37 149.968 107.045 150.244 106.782Z" fill="#E84C4F"/>
    <path d="M150.244 106.782C150.329 106.669 150.447 106.586 150.582 106.544C150.717 106.503 150.862 106.506 150.995 106.553C151.128 106.6 151.243 106.687 151.323 106.804C151.403 106.92 151.444 107.059 151.439 107.2C151.49 107.578 151.45 107.963 151.323 108.324C151.196 108.684 150.986 109.009 150.709 109.272C150.178 109.73 149.646 109.537 149.514 108.853C149.464 108.475 149.505 108.09 149.631 107.73C149.758 107.37 149.968 107.045 150.244 106.782Z" fill="black"/>
    <path d="M104.003 152.757C104.003 152.889 104.003 153.009 104.003 153.142C104.003 153.407 104.003 153.68 104.003 153.952C102.928 153.494 101.527 153.646 100.019 154.536C96.6395 156.488 93.8972 161.236 93.8972 165.16C93.8972 166.979 94.4948 168.294 95.4775 168.978C95.2016 169.174 94.9157 169.356 94.621 169.523L94.3089 169.682L93.3727 173.208L87.9544 170.187C86.2413 169.197 85.1855 167.086 85.1855 164.071C85.1855 158.049 89.4086 150.731 94.621 147.717C97.1973 146.229 99.528 146.077 101.261 147.053L106.573 150.028L106.686 150.094L104.003 152.757Z" fill="#455A64"/>
    <path d="M87.8416 142.219L83.7979 156.236L91.892 160.91L96.0818 146.98L87.8416 142.219Z" fill="#E84C4F"/>
    <path opacity="0.2" d="M87.8416 142.219L83.7979 156.236L91.892 160.91L96.0818 146.98L87.8416 142.219Z" fill="black"/>
    <path d="M87.8413 142.219C87.8413 142.219 92.4296 146.117 96.0816 146.98C100.876 148.142 108.498 148.268 111.201 148.454C115.331 148.74 118.452 148.733 119.913 148.209C121.805 147.545 126.891 144.59 128.299 143.78C130.995 142.226 132.143 136.111 124.713 134.437C119.689 133.396 114.572 132.874 109.441 132.877L87.8413 142.219Z" fill="#E84C4F"/>
    <path d="M133.598 140.426C133.367 141.004 133.21 141.609 133.133 142.226C132.919 142.867 132.869 143.552 132.987 144.218C133.493 145.055 134.289 145.676 135.224 145.964C135.898 146.114 136.595 146.123 137.273 145.992C137.95 145.861 138.593 145.591 139.162 145.2C140.536 144.377 141.572 143.381 143.524 142.823C144.92 142.528 146.234 141.932 147.376 141.077C148.458 140.207 149.905 137.804 147.834 137.246C145.762 136.688 141.26 138.653 137.157 138.833L133.598 140.426Z" fill="#37474F"/>
    <path d="M133.598 137.863V140.931C133.723 141.276 133.942 141.579 134.229 141.807C134.516 142.036 134.86 142.181 135.224 142.226C135.558 142.275 135.898 142.238 136.214 142.12C136.711 141.93 137.142 141.598 137.454 141.167C137.765 140.735 137.944 140.221 137.967 139.689L138.086 137.863H133.598Z" fill="#FFA8A7"/>
    <path d="M139.441 118.893C139.441 122.711 138.365 139.218 138.365 139.218C138.365 139.218 136.805 141.21 133.412 139.218L132.27 120.772L139.441 118.893Z" fill="#37474F"/>
    <path d="M121.645 135.161L132.269 129.039C132.705 128.811 133.069 128.468 133.324 128.047C133.578 127.626 133.713 127.144 133.713 126.652C133.713 126.161 133.578 125.678 133.324 125.258C133.069 124.837 132.705 124.494 132.269 124.265L124.355 119.697C123.909 119.471 123.416 119.354 122.917 119.354C122.417 119.354 121.925 119.471 121.479 119.697L110.855 125.819C110.422 126.049 110.059 126.393 109.806 126.813C109.554 127.234 109.42 127.715 109.42 128.206C109.42 128.697 109.554 129.178 109.806 129.599C110.059 130.019 110.422 130.363 110.855 130.593L118.77 135.161C119.216 135.387 119.708 135.505 120.208 135.505C120.707 135.505 121.2 135.387 121.645 135.161Z" fill="#E84C4F"/>
    <path d="M121.645 135.161L132.269 129.039C132.705 128.811 133.069 128.468 133.324 128.047C133.578 127.626 133.713 127.144 133.713 126.652C133.713 126.161 133.578 125.678 133.324 125.258C133.069 124.837 132.705 124.494 132.269 124.265L124.355 119.697C123.909 119.471 123.416 119.354 122.917 119.354C122.417 119.354 121.925 119.471 121.479 119.697L110.855 125.819C110.422 126.049 110.059 126.393 109.806 126.813C109.554 127.234 109.42 127.715 109.42 128.206C109.42 128.697 109.554 129.178 109.806 129.599C110.059 130.019 110.422 130.363 110.855 130.593L118.77 135.161C119.216 135.387 119.708 135.505 120.208 135.505C120.707 135.505 121.2 135.387 121.645 135.161Z" fill="white"/>
    <path d="M110.856 127.479L118.77 132.047C119.216 132.273 119.709 132.391 120.208 132.391C120.708 132.391 121.2 132.273 121.646 132.047L132.27 125.925C132.443 125.866 132.594 125.755 132.7 125.606C132.807 125.457 132.864 125.278 132.864 125.095C132.864 124.912 132.807 124.734 132.7 124.585C132.594 124.436 132.443 124.324 132.27 124.265L124.355 119.697C123.909 119.471 123.417 119.354 122.917 119.354C122.418 119.354 121.925 119.471 121.48 119.697L110.856 125.819C110.682 125.878 110.532 125.99 110.425 126.138C110.318 126.287 110.261 126.466 110.261 126.649C110.261 126.832 110.318 127.011 110.425 127.16C110.532 127.308 110.682 127.42 110.856 127.479Z" fill="#E84C4F"/>
    <path d="M117.329 86.8416L115.981 92.3993L110.191 92.7512L111.44 85.0488L117.329 86.8416Z" fill="#FFA8A7"/>
    <path d="M122.974 82.6582C122.974 82.6582 123.638 85.0088 123.366 85.1416C122.947 85.2054 122.522 85.2054 122.104 85.1416L122.974 82.6582Z" fill="#F28F8F"/>
    <path d="M121.865 75.1564C122.795 76.252 123.644 78.0514 122.987 82.4604C122.27 87.281 121.38 87.8388 120.663 88.3036C119.727 88.9144 115.982 88.5891 114.926 87.8188C113.658 86.8959 111.699 83.9677 111.234 81.0793C110.69 77.6862 111.825 73.9213 114.322 73.2772C117.834 72.3676 121.075 74.2268 121.865 75.1564Z" fill="#FFA8A7"/>
    <path d="M110.856 86.6096C111.752 87.5392 113.591 87.7915 114.747 88.004C115.902 88.2165 119.454 88.4489 120.504 85.919C121.553 83.3892 120.836 81.5698 122.124 80.959C123.412 80.3481 124.7 79.9497 125.039 79.6309C125.377 79.3122 125.384 75.1489 121.925 72.9909C118.465 70.8329 113.166 70.3349 109.68 74.7107C107.038 78.0905 108.12 83.7544 110.856 86.6096Z" fill="#455A64"/>
    <path d="M114.342 88.0369C115.238 88.1165 118.073 87.6717 118.93 86.503C119.787 85.3344 120.132 83.2428 120.258 82.1472C120.27 81.7157 120.428 81.301 120.707 80.9715C120.986 80.642 121.368 80.4173 121.792 80.3345C122.648 80.0622 124.541 79.1326 124.541 79.1326V78.6147C125.151 78.5763 125.763 78.5763 126.373 78.6147C126.772 78.6877 126.553 79.2787 125.543 79.79C124.534 80.3013 121.765 81.2906 121.34 81.6293C120.915 81.9679 120.716 83.3955 120.378 84.9161C120.039 86.4366 118.99 88.7075 114.342 88.0369Z" fill="#37474F"/>
    <path d="M122.31 94.3256L125.63 92.4199C125.948 91.4571 125.437 90.9724 124.534 91.0322C123.631 91.0919 123.91 90.2154 123.359 89.9698C122.635 89.6378 122.223 89.8237 121.898 89.671C121.573 89.5182 121.433 89.1331 121.008 89.0866C119.109 88.9074 117.814 91.6165 117.814 91.6165L122.31 94.3256Z" fill="#F28F8F"/>
    <path d="M99.7734 118.707C99.7734 118.707 114.441 111.436 116.998 110.261C119.554 109.085 123.565 107.379 125.696 107.379C126.529 107.448 127.309 107.815 127.893 108.412C128.478 109.01 128.827 109.798 128.877 110.633C128.904 111.913 128.831 113.194 128.657 114.464C124.627 115.786 120.509 116.822 116.334 117.565C110.231 118.627 99.7734 118.707 99.7734 118.707Z" fill="#37474F"/>
    <path d="M101.367 114.504C101.367 117.519 101.082 120.653 102.337 122.857C103.592 125.062 110.391 130.161 116.792 129.092C120.975 128.388 133.392 122.671 133.392 122.671C133.392 122.671 139.414 120.46 139.441 118.887C139.481 116.569 139.322 113.302 134.069 113.442C129.282 113.568 115.159 116.516 115.159 116.516L101.367 114.504Z" fill="#455A64"/>
    <path d="M105.464 90.6194C107.735 88.2489 109.269 88.0497 110.358 88.3419C112.86 89.0581 115.283 90.0282 117.589 91.2369C117.589 91.2369 116.712 99.7229 120.862 102.166V115.393C120.862 115.393 120.736 116.827 118.93 118.255C117.336 119.51 113.731 120.778 109.428 120.42C104.315 119.995 101.367 114.503 101.367 114.503C101.367 114.503 101.234 103.687 101.958 99.3909C102.808 94.3777 104.68 91.4428 105.464 90.6194Z" fill="#455A64"/>
    <path d="M120.862 102.812C120.862 102.812 118.352 100.82 117.588 98.2305C117.588 98.2305 117.887 102.294 120.862 104.353V102.812Z" fill="#37474F"/>
    <path d="M144.095 109.053C145.288 109.102 146.46 108.739 147.415 108.024C147.415 108.024 148.571 105.78 149.992 105.972C149.992 105.972 150.244 105.016 149.66 104.704C149.075 104.392 148.823 104.478 148.584 104.146C148.345 103.814 148.318 103.197 147.256 103.197C146.818 103.197 146.878 102.885 145.815 102.759C144.753 102.632 143.704 105.083 142.927 105.083L144.095 109.053Z" fill="#FFA8A7"/>
    <path d="M117.589 91.2383C121.234 91.8027 122.556 92.885 123.884 94.1134C125.212 95.3418 133.339 103.496 133.339 103.496L143.179 104.91C143.697 105.329 144.076 105.893 144.268 106.53C144.667 107.686 144.308 108.947 143.93 109.246C143.93 109.246 134.169 109.83 132.25 109.465C130.331 109.1 120.829 102.792 120.829 102.792C119.921 102.107 119.159 101.247 118.589 100.263C118.019 99.2786 117.652 98.1901 117.509 97.0616C116.892 93.0576 117.589 91.2383 117.589 91.2383Z" fill="#455A64"/>
    <path d="M108.837 126.311L93.7576 144.717C93.5902 144.738 93.4217 144.749 93.253 144.75C92.655 144.76 92.0641 144.621 91.5332 144.345L78.7977 136.988L77.9345 136.49C77.4631 136.218 77.0713 135.102 77.0713 134V130.899C77.0708 127.714 77.9087 124.585 79.5009 121.826C81.093 119.067 83.3833 116.776 86.1415 115.182L101.347 106.404L117.529 115.747L108.837 126.311Z" fill="#E84C4F"/>
    <g opacity="0.1">
        <path opacity="0.1" d="M108.837 126.311L93.7576 144.717C93.5902 144.738 93.4217 144.749 93.253 144.75C92.655 144.76 92.0641 144.621 91.5332 144.345L78.7977 136.988L77.9345 136.49C77.4631 136.218 77.0713 135.102 77.0713 134V130.899C77.0708 127.714 77.9087 124.585 79.5009 121.826C81.093 119.067 83.3833 116.776 86.1415 115.182L101.347 106.404L117.529 115.747L108.837 126.311Z" fill="black"/>
    </g>
    <path d="M103.638 132.658L117.509 115.753L101.327 106.41L86.1284 115.182C84.1623 116.32 82.4279 117.818 81.0156 119.597L103.638 132.658Z" fill="#E84C4F"/>
    <path d="M117.509 129.325C117.509 130.427 117.124 131.543 116.646 131.815L115.782 132.313L94.9593 144.338C94.5804 144.542 94.1655 144.671 93.7375 144.716C93.5702 144.738 93.4016 144.749 93.2329 144.75V140.241C93.2324 137.055 94.071 133.925 95.6645 131.166C97.2579 128.407 99.5499 126.116 102.31 124.524L104.03 123.535L117.509 115.746V129.325Z" fill="#E84C4F"/>
    <g opacity="0.2">
        <path opacity="0.2" d="M117.509 129.325C117.509 130.427 117.124 131.543 116.646 131.815L115.782 132.313L94.9593 144.338C94.5804 144.542 94.1655 144.671 93.7375 144.716C93.5702 144.738 93.4016 144.749 93.2329 144.75V140.241C93.2324 137.055 94.071 133.925 95.6645 131.166C97.2579 128.407 99.5499 126.116 102.31 124.524L104.03 123.535L117.509 115.746V129.325Z" fill="black"/>
    </g>
    <path d="M121.978 152.099L130.125 152.073L141.785 145.34L130.364 153.593L121.765 153.713L121.978 152.099Z" fill="#E0E0E0"/>
    <path d="M102.197 163.693C102.197 163.693 116.885 158.155 118.133 157.505C119.598 156.607 120.988 155.592 122.29 154.47C122.555 154.119 122.68 153.681 122.64 153.242C122.599 152.804 122.396 152.396 122.071 152.1C122.071 152.1 116.095 151.827 114.561 152.299C113.704 152.558 99.8799 156.993 99.8799 156.993L102.197 163.693Z" fill="#E0E0E0"/>
    <path d="M101.54 157.504C100.325 156.462 99.1028 156.894 98.804 158.461C98.6899 159.325 98.7814 160.205 99.0709 161.027C99.3605 161.85 99.8401 162.592 100.471 163.195C101.686 164.237 102.908 163.812 103.206 162.239C103.32 161.374 103.228 160.495 102.939 159.672C102.649 158.85 102.17 158.107 101.54 157.504Z" fill="#455A64"/>
</svg>
