<svg width="236" height="72" viewBox="0 0 236 72" fill="none" xmlns="http://www.w3.org/2000/svg">
  <path d="M189.51 15.42C186.546 15.5095 183.71 16.6509 181.51 18.64C181.099 17.6278 180.379 16.7713 179.452 16.1929C178.526 15.6146 177.44 15.3441 176.35 15.42C173.15 15.42 170.91 17.42 170.91 20.42V50.1C170.91 53.02 173.15 55.1 176.35 55.1C179.55 55.1 181.8 53.1 181.8 50.1V33.39C181.73 28.91 184.4 26.02 189.32 25.24C193.26 24.58 195.26 22.9 195.26 20.24C195.26 17.58 192.86 15.42 189.51 15.42Z" fill="#EC5251"/>
  <path d="M108.64 5V18C105.808 16.2579 102.535 15.3659 99.2099 15.43C96.5962 15.3752 93.9985 15.8506 91.5736 16.8275C89.1487 17.8045 86.9469 19.2626 85.1011 21.114C83.2553 22.9654 81.8038 25.1716 80.8343 27.5995C79.8647 30.0273 79.3972 32.6265 79.4599 35.24C79.4599 46.73 87.9099 55.06 99.5399 55.06C103.61 55.06 106.77 54.22 109.2 52.45C109.696 53.2932 110.414 53.9831 111.277 54.4437C112.14 54.9042 113.114 55.1175 114.09 55.06C117.3 55.06 119.54 53.06 119.54 50.06V5C119.54 2.08 117.3 0 114.09 0C110.88 0 108.64 2 108.64 5ZM99.8799 46.34C93.9999 46.34 90.3599 42.09 90.3599 35.24C90.3599 28.39 94.0599 24.15 99.7899 24.15C105.52 24.15 109.31 28.43 109.31 35.31C109.31 42 105.61 46.34 99.8799 46.34Z" fill="#EC5251"/>
  <path d="M215.41 55.06C219.017 55.193 222.565 54.1159 225.49 52C225.89 52.9539 226.574 53.7619 227.449 54.3145C228.323 54.8672 229.347 55.1379 230.38 55.09C233.38 55.09 235.66 53.09 235.66 50.35V20.17C235.66 17.47 233.39 15.42 230.38 15.42C229.364 15.3787 228.36 15.6423 227.495 16.177C226.631 16.7117 225.947 17.4929 225.53 18.42C222.603 16.377 219.098 15.3256 215.53 15.42C203.74 15.42 195.19 23.76 195.19 35.24C195.16 46.54 203.87 55.06 215.41 55.06ZM215.58 24.15C221.45 24.15 225.1 28.4 225.1 35.24C225.1 42.08 221.45 46.34 215.58 46.34C209.71 46.34 206.06 42.06 206.06 35.17C206.06 28.47 209.8 24.15 215.58 24.15V24.15Z" fill="#EC5251"/>
  <path d="M165.78 34.26C165.78 23.7 156.93 15.42 145.62 15.42C133.62 15.42 124.95 23.82 124.95 35.42C124.95 47.2 133.36 55.1 145.87 55.1C153.55 55.1 164.94 51.25 164.94 45.92C164.911 44.7616 164.431 43.6603 163.601 42.8513C162.772 42.0423 161.659 41.5897 160.5 41.59C159.11 41.59 158.04 42.13 156.31 43.28C153.441 45.3975 149.944 46.4893 146.38 46.38C143.649 46.5294 140.956 45.6839 138.8 44C137.337 42.8545 136.365 41.1958 136.08 39.36H159.92C163.86 39.36 165.78 37.69 165.78 34.26ZM136.11 31.26C137.11 26.41 140.03 24.14 145.28 24.14C150.53 24.14 153.77 26.65 154.66 31.26H136.11Z" fill="#EC5251"/>
  <path d="M75.9999 34.26C75.9999 23.7 67.1399 15.42 55.8399 15.42C43.8399 15.42 35.1699 23.82 35.1699 35.42C35.1699 47.2 43.5799 55.1 56.0899 55.1C63.7699 55.1 75.1599 51.25 75.1599 45.92C75.1312 44.7616 74.6508 43.6603 73.8212 42.8513C72.9916 42.0423 71.8787 41.5897 70.7199 41.59C69.3199 41.59 68.2599 42.13 66.5199 43.28C63.6526 45.4004 60.1543 46.4925 56.5899 46.38C53.8551 46.5328 51.1579 45.687 48.9999 44C47.5373 42.8545 46.5649 41.1958 46.2799 39.36H70.1099C74.0599 39.36 75.9999 37.69 75.9999 34.26ZM46.3299 31.26C47.3299 26.41 50.2499 24.14 55.4999 24.14C60.7499 24.14 63.9799 26.65 64.8799 31.26H46.3299Z" fill="#EC5251"/>
  <path d="M19.32 55.06C22.53 55.06 24.77 53.06 24.77 50.06V13.06H33.28C36.49 13.06 38.65 11.21 38.65 8.45C38.65 5.69 36.49 3.91 33.28 3.91H5.36C2.16 3.94 0 5.77 0 8.48C0 11.19 2.16 13.09 5.36 13.09H13.88V50.09C13.88 53 16.12 55.06 19.32 55.06Z" fill="#EC5251"/>
  <path d="M189.2 59.77C189.115 59.4443 188.922 59.1568 188.654 58.9536C188.386 58.7505 188.057 58.6435 187.72 58.65C187.383 58.6482 187.055 58.7567 186.786 58.959C186.517 59.1612 186.322 59.4461 186.23 59.77L182 69.91C181.873 70.1883 181.792 70.4855 181.76 70.79C181.769 70.9261 181.805 71.059 181.867 71.1805C181.928 71.3021 182.014 71.4097 182.119 71.4968C182.224 71.5839 182.346 71.6486 182.477 71.687C182.607 71.7254 182.745 71.7366 182.88 71.72C183.119 71.7372 183.358 71.6764 183.56 71.5466C183.762 71.4168 183.916 71.225 184 71L184.81 69H190.69L191.49 71C191.563 71.2318 191.71 71.433 191.909 71.5723C192.108 71.7116 192.347 71.7811 192.59 71.77C192.724 71.7837 192.859 71.7703 192.987 71.7306C193.116 71.6909 193.235 71.6257 193.338 71.5389C193.44 71.452 193.525 71.3454 193.585 71.2253C193.646 71.1052 193.681 70.9742 193.69 70.84C193.681 70.633 193.634 70.4295 193.55 70.24L189.2 59.77ZM189.9 67.03H185.54L187.72 61.49L189.9 67.03Z" fill="#EB5351"/>
  <path d="M202.54 57.73C202.39 57.7184 202.239 57.739 202.097 57.7903C201.956 57.8416 201.827 57.9224 201.719 58.0274C201.611 58.1324 201.527 58.2592 201.472 58.3993C201.417 58.5394 201.392 58.6896 201.4 58.84V62.6C200.705 62.0306 199.828 61.729 198.93 61.75C197.604 61.7606 196.336 62.2976 195.406 63.2427C194.476 64.1879 193.959 65.4639 193.97 66.79C193.98 68.1161 194.517 69.3836 195.463 70.3138C196.408 71.244 197.684 71.7606 199.01 71.75C199.447 71.7818 199.886 71.7266 200.301 71.5876C200.716 71.4486 201.1 71.2284 201.43 70.94C201.509 71.2017 201.68 71.4266 201.91 71.574C202.141 71.7215 202.416 71.782 202.687 71.7447C202.958 71.7073 203.207 71.5746 203.389 71.3703C203.571 71.166 203.674 70.9035 203.68 70.63V58.84C203.686 58.6901 203.66 58.5406 203.605 58.4012C203.549 58.2618 203.465 58.1357 203.357 58.031C203.25 57.9263 203.121 57.8454 202.981 57.7936C202.84 57.7417 202.69 57.7201 202.54 57.73V57.73ZM201.54 66.73C201.54 68.58 200.54 69.73 199.07 69.73C197.6 69.73 196.59 68.55 196.59 66.66C196.59 64.77 197.59 63.59 199.05 63.59C200.51 63.59 201.56 64.84 201.56 66.75L201.54 66.73Z" fill="#EB5351"/>
  <path d="M216.4 61.75C215.818 61.7213 215.238 61.8304 214.706 62.0685C214.174 62.3066 213.706 62.6668 213.34 63.12C213.019 62.6749 212.592 62.3166 212.098 62.0775C211.604 61.8383 211.058 61.7258 210.51 61.75C209.669 61.6976 208.841 61.9737 208.2 62.52C208.114 62.2634 207.94 62.0453 207.709 61.9043C207.478 61.7632 207.205 61.7081 206.937 61.7487C206.669 61.7894 206.425 61.9231 206.246 62.1263C206.067 62.3296 205.966 62.5894 205.96 62.86V70.6C205.96 70.9023 206.08 71.1923 206.294 71.4061C206.508 71.6199 206.798 71.74 207.1 71.74C207.402 71.74 207.692 71.6199 207.906 71.4061C208.12 71.1923 208.24 70.9023 208.24 70.6V65.48C208.274 65.0089 208.486 64.5684 208.832 64.2469C209.178 63.9253 209.633 63.7466 210.105 63.7466C210.577 63.7466 211.032 63.9253 211.378 64.2469C211.724 64.5684 211.935 65.0089 211.97 65.48V70.6C211.997 70.8852 212.129 71.1502 212.341 71.3431C212.552 71.5359 212.829 71.6428 213.115 71.6428C213.401 71.6428 213.678 71.5359 213.889 71.3431C214.101 71.1502 214.233 70.8852 214.26 70.6V65.48C214.236 65.2324 214.268 64.9826 214.353 64.7489C214.438 64.5151 214.574 64.3033 214.751 64.1289C214.928 63.9545 215.142 63.8219 215.377 63.7407C215.613 63.6596 215.863 63.632 216.11 63.66C216.359 63.6293 216.613 63.6547 216.851 63.7343C217.089 63.8139 217.307 63.9457 217.488 64.12C217.669 64.2944 217.809 64.5069 217.898 64.7422C217.986 64.9775 218.021 65.2295 218 65.48V70.6C218 70.9023 218.12 71.1923 218.334 71.4061C218.548 71.6199 218.838 71.74 219.14 71.74C219.442 71.74 219.732 71.6199 219.946 71.4061C220.16 71.1923 220.28 70.9023 220.28 70.6V65.52C220.309 65.0078 220.228 64.4953 220.041 64.0173C219.855 63.5392 219.568 63.1068 219.201 62.7493C218.833 62.3918 218.392 62.1175 217.909 61.9451C217.426 61.7727 216.911 61.7062 216.4 61.75Z" fill="#EB5351"/>
  <path d="M223.63 61.75C223.48 61.7385 223.329 61.759 223.188 61.8103C223.046 61.8616 222.917 61.9424 222.809 62.0474C222.701 62.1524 222.617 62.2792 222.562 62.4193C222.507 62.5594 222.483 62.7097 222.49 62.86V70.6C222.517 70.8852 222.649 71.1502 222.861 71.3431C223.073 71.536 223.349 71.6429 223.635 71.6429C223.922 71.6429 224.198 71.536 224.409 71.3431C224.621 71.1502 224.753 70.8852 224.78 70.6V62.86C224.786 62.7092 224.76 62.5588 224.704 62.4187C224.648 62.2785 224.563 62.1519 224.454 62.0471C224.345 61.9422 224.216 61.8616 224.074 61.8104C223.932 61.7592 223.781 61.7386 223.63 61.75V61.75Z" fill="#EB5351"/>
  <path d="M223.63 58.65C223.392 58.6751 223.166 58.7686 222.98 58.9192C222.794 59.0698 222.655 59.271 222.581 59.4986C222.507 59.7263 222.5 59.9705 222.562 60.2019C222.623 60.4332 222.75 60.6418 222.928 60.8025C223.105 60.9632 223.326 61.069 223.562 61.1072C223.798 61.1455 224.041 61.1145 224.26 61.018C224.479 60.9215 224.665 60.7636 224.797 60.5635C224.928 60.3633 224.999 60.1294 225 59.89C224.995 59.7174 224.955 59.5477 224.883 59.3909C224.811 59.2342 224.707 59.0936 224.579 58.9778C224.451 58.862 224.301 58.7732 224.138 58.7169C223.975 58.6605 223.802 58.6378 223.63 58.65Z" fill="#EB5351"/>
  <path d="M231.81 61.75C230.883 61.7234 229.977 62.0323 229.26 62.62C229.189 62.3548 229.026 62.1236 228.8 61.9681C228.574 61.8127 228.3 61.7431 228.027 61.7721C227.754 61.8011 227.501 61.9266 227.312 62.1262C227.124 62.3257 227.013 62.5859 227 62.86V70.6C227 70.9024 227.12 71.1923 227.334 71.4061C227.548 71.6199 227.838 71.74 228.14 71.74C228.442 71.74 228.732 71.6199 228.946 71.4061C229.16 71.1923 229.28 70.9024 229.28 70.6V65.6C229.28 65.0563 229.496 64.5349 229.88 64.1504C230.265 63.766 230.786 63.55 231.33 63.55C231.874 63.55 232.395 63.766 232.78 64.1504C233.164 64.5349 233.38 65.0563 233.38 65.6V70.6C233.38 70.9024 233.5 71.1923 233.714 71.4061C233.928 71.6199 234.218 71.74 234.52 71.74C234.822 71.74 235.112 71.6199 235.326 71.4061C235.54 71.1923 235.66 70.9024 235.66 70.6V65.52C235.684 65.0118 235.6 64.5042 235.414 64.0307C235.227 63.5572 234.943 63.1284 234.58 62.7724C234.216 62.4165 233.781 62.1414 233.304 61.9652C232.827 61.7889 232.318 61.7156 231.81 61.75V61.75Z" fill="#EB5351"/>
</svg>
