<svg id="Layer_1" data-name="Layer 1" xmlns="http://www.w3.org/2000/svg" width="235.66" height="55.1" viewBox="0 0 235.66 55.1">
  <path id="Path_7" data-name="Path 7" d="M189.51,15.42a12.49,12.49,0,0,0-8,3.22,5.18,5.18,0,0,0-5.16-3.22c-3.2,0-5.44,2-5.44,5V50.1c0,2.92,2.24,5,5.44,5s5.45-2,5.45-5V33.39c-.07-4.48,2.6-7.37,7.52-8.15,3.94-.66,5.94-2.34,5.94-5S192.86,15.42,189.51,15.42Z" fill="#fff"/>
  <path id="Path_8" data-name="Path 8" d="M108.64,5V18a17.36,17.36,0,0,0-9.43-2.57A19.35,19.35,0,0,0,79.46,35.24c0,11.49,8.45,19.82,20.08,19.82,4.07,0,7.23-.84,9.66-2.61a5.31,5.31,0,0,0,4.89,2.61c3.21,0,5.45-2,5.45-5V5c0-2.92-2.24-5-5.45-5S108.64,2,108.64,5ZM99.88,46.34c-5.88,0-9.52-4.25-9.52-11.1s3.7-11.09,9.43-11.09,9.52,4.28,9.52,11.16C109.31,42,105.61,46.34,99.88,46.34Z" fill="#fff"/>
  <path id="Path_9" data-name="Path 9" d="M215.41,55.06A16.18,16.18,0,0,0,225.49,52a5.05,5.05,0,0,0,4.89,3.09c3,0,5.28-2,5.28-4.74V20.17c0-2.7-2.27-4.75-5.28-4.75a5.09,5.09,0,0,0-4.85,3,16.7,16.7,0,0,0-10-3c-11.79,0-20.34,8.34-20.34,19.82C195.16,46.54,203.87,55.06,215.41,55.06Zm.17-30.91c5.87,0,9.52,4.25,9.52,11.09s-3.65,11.1-9.52,11.1-9.52-4.28-9.52-11.17c0-6.7,3.74-11.02,9.52-11.02Z" fill="#fff"/>
  <path id="Path_10" data-name="Path 10" d="M165.78,34.26c0-10.56-8.85-18.84-20.16-18.84-12,0-20.67,8.4-20.67,20,0,11.78,8.41,19.68,20.92,19.68,7.68,0,19.07-3.85,19.07-9.18a4.44,4.44,0,0,0-4.44-4.33c-1.39,0-2.46.54-4.19,1.69a15.9,15.9,0,0,1-9.93,3.1A11.31,11.31,0,0,1,138.8,44a7.32,7.32,0,0,1-2.72-4.64h23.84C163.86,39.36,165.78,37.69,165.78,34.26Zm-29.67-3c1-4.85,3.92-7.12,9.17-7.12s8.49,2.51,9.38,7.12Z" fill="#fff"/>
  <path id="Path_11" data-name="Path 11" d="M76,34.26c0-10.56-8.86-18.84-20.16-18.84-12,0-20.67,8.4-20.67,20,0,11.78,8.41,19.68,20.92,19.68,7.68,0,19.07-3.85,19.07-9.18a4.44,4.44,0,0,0-4.44-4.33c-1.4,0-2.46.54-4.2,1.69a15.86,15.86,0,0,1-9.93,3.1A11.3,11.3,0,0,1,49,44a7.32,7.32,0,0,1-2.72-4.64H70.11C74.06,39.36,76,37.69,76,34.26Zm-29.67-3c1-4.85,3.92-7.12,9.17-7.12s8.48,2.51,9.38,7.12Z" fill="#fff"/>
  <path id="Path_12" data-name="Path 12" d="M19.32,55.06c3.21,0,5.45-2,5.45-5v-37h8.51c3.21,0,5.37-1.85,5.37-4.61s-2.16-4.54-5.37-4.54H5.36C2.16,3.94,0,5.77,0,8.48s2.16,4.61,5.36,4.61h8.52v37C13.88,53,16.12,55.06,19.32,55.06Z" fill="#fff"/>
</svg>
