<svg width="16" height="16" viewBox="0 0 16 16" fill="none" xmlns="http://www.w3.org/2000/svg">
    <path fill-rule="evenodd" clip-rule="evenodd" d="M8 0C3.58214 0 0 3.58214 0 8C0 12.4179 3.58214 16 8 16C12.4179 16 16 12.4179 16 8C16 3.58214 12.4179 0 8 0ZM12.1036 5.325L7.13571 11.7C7.09643 11.7393 7.03214 11.825 6.95357 11.825C6.87143 11.825 6.81786 11.7679 6.77143 11.7214C6.725 11.675 3.95357 9.01071 3.95357 9.01071L3.9 8.95714C3.87857 8.925 3.86071 8.88571 3.86071 8.84286C3.86071 8.8 3.87857 8.76071 3.9 8.72857C3.91429 8.71429 3.925 8.70357 3.93929 8.68571C4.21429 8.39643 4.77143 7.81071 4.80714 7.775C4.85357 7.72857 4.89286 7.66786 4.97857 7.66786C5.06786 7.66786 5.125 7.74286 5.16786 7.78571C5.21071 7.82857 6.775 9.33214 6.775 9.33214L10.75 4.225C10.7857 4.19643 10.8286 4.175 10.875 4.175C10.9214 4.175 10.9643 4.19286 11 4.22143L12.0929 5.08214C12.1214 5.11786 12.1393 5.16071 12.1393 5.20714C12.1429 5.25357 12.125 5.29286 12.1036 5.325Z" fill="#FA6400"/>
</svg>
