<svg width="22" height="22" viewBox="0 0 22 22" fill="none" xmlns="http://www.w3.org/2000/svg">
    <path d="M6.71398 11.0712C7.61757 12.9185 9.11498 14.4091 10.9664 15.3043C11.1018 15.3684 11.2517 15.3963 11.4011 15.3849C11.5506 15.3736 11.6946 15.3236 11.8188 15.2398L14.5449 13.422C14.6654 13.3416 14.8042 13.2925 14.9485 13.2793C15.0928 13.266 15.2381 13.289 15.3713 13.346L20.4712 15.5317C20.6445 15.6053 20.7891 15.7332 20.8834 15.8962C20.9776 16.0591 21.0163 16.2483 20.9937 16.4351C20.8325 17.6965 20.2171 18.8558 19.2627 19.6961C18.3082 20.5364 17.0802 20.9999 15.8086 21C11.8811 21 8.1145 19.4398 5.33735 16.6627C2.56019 13.8855 1 10.1189 1 6.19138C1.00007 4.91977 1.46363 3.69178 2.3039 2.73735C3.14417 1.78292 4.30352 1.16748 5.56487 1.00629C5.75173 0.983676 5.94089 1.0224 6.10383 1.11664C6.26677 1.21087 6.39467 1.35551 6.46827 1.52875L8.65586 6.63314C8.71245 6.76517 8.7355 6.90914 8.72298 7.05224C8.71045 7.19534 8.66273 7.33312 8.58407 7.45331L6.77259 10.2212C6.69014 10.3457 6.6414 10.4895 6.63113 10.6384C6.62085 10.7874 6.6494 10.9365 6.71398 11.0712V11.0712Z" stroke="#D1D3D6" stroke-linecap="round" stroke-linejoin="round"/>
</svg>
