<svg width="11" height="12" viewBox="0 0 11 12" fill="none" xmlns="http://www.w3.org/2000/svg">
    <path d="M9.41904 4.63135C9.41904 4.63135 9.12552 8.27203 8.95524 9.80561C8.87416 10.5381 8.42171 10.9673 7.6806 10.9808C6.27027 11.0062 4.85832 11.0078 3.44853 10.9781C2.73553 10.9635 2.29065 10.5289 2.21119 9.80939C2.03983 8.26231 1.74792 4.63135 1.74792 4.63135" stroke="#ED5151" stroke-linecap="round" stroke-linejoin="round"/>
    <path d="M10.1669 2.886H1" stroke="#ED5151" stroke-linecap="round" stroke-linejoin="round"/>
    <path d="M8.40052 2.88602C7.97618 2.88602 7.61075 2.58601 7.52751 2.17032L7.39615 1.51299C7.31507 1.20974 7.04046 1 6.72748 1H4.43928C4.12629 1 3.85168 1.20974 3.7706 1.51299L3.63924 2.17032C3.556 2.58601 3.19058 2.88602 2.76624 2.88602" stroke="#ED5151" stroke-linecap="round" stroke-linejoin="round"/>
</svg>
