<svg width="16" height="16" viewBox="0 0 16 16" fill="none" xmlns="http://www.w3.org/2000/svg">
    <path fill-rule="evenodd" clip-rule="evenodd" d="M10.4933 9.1307C12.1022 6.87309 11.8939 3.7186 9.8685 1.69317C7.61094 -0.564389 3.95072 -0.564389 1.69317 1.69317C-0.564389 3.95072 -0.564389 7.61094 1.69317 9.8685C3.7186 11.8939 6.87309 12.1022 9.1307 10.4933L14.6374 16L16 14.6374L10.4933 9.1307ZM8.50595 3.05572C10.011 4.56076 10.011 7.00091 8.50595 8.50595C7.00091 10.011 4.56076 10.011 3.05572 8.50595C1.55069 7.00091 1.55069 4.56076 3.05572 3.05572C4.56076 1.55069 7.00091 1.55069 8.50595 3.05572Z" fill="#EDF1F7"/>
</svg>
