<svg width="10" height="10" viewBox="0 0 10 10" fill="none" xmlns="http://www.w3.org/2000/svg">
    <path d="M5.29891 0.194703C5.24276 0.0754798 5.12688 0 5 0C4.87312 0 4.75724 0.0754798 4.70109 0.194703L3.3365 3.09198L0.285439 3.55624C0.159871 3.57535 0.0555443 3.6675 0.0163289 3.79395C-0.0228865 3.92039 0.00981073 4.05921 0.100672 4.15201L2.30851 6.4071L1.78717 9.59167C1.76571 9.72271 1.81712 9.85514 1.91977 9.93329C2.02242 10.0114 2.15851 10.0217 2.27082 9.95987L5 8.45633L7.72918 9.95987C7.84149 10.0217 7.97758 10.0114 8.08023 9.93329C8.18288 9.85514 8.23429 9.72271 8.21283 9.59167L7.69149 6.4071L9.89933 4.15201C9.99019 4.05921 10.0229 3.92039 9.98367 3.79395C9.94446 3.6675 9.84013 3.57535 9.71456 3.55624L6.6635 3.09198L5.29891 0.194703Z" fill="#E9A71D"/>
    <path d="M5.29891 0.194703C5.24276 0.0754798 5.12688 0 5 0C4.87312 0 4.75724 0.0754798 4.70109 0.194703L3.3365 3.09198L0.285439 3.55624C0.159871 3.57535 0.0555443 3.6675 0.0163289 3.79395C-0.0228865 3.92039 0.00981073 4.05921 0.100672 4.15201L2.30851 6.4071L1.78717 9.59167C1.76571 9.72271 1.81712 9.85514 1.91977 9.93329C2.02242 10.0114 2.15851 10.0217 2.27082 9.95987L5 8.45633L7.72918 9.95987C7.84149 10.0217 7.97758 10.0114 8.08023 9.93329C8.18288 9.85514 8.23429 9.72271 8.21283 9.59167L7.69149 6.4071L9.89933 4.15201C9.99019 4.05921 10.0229 3.92039 9.98367 3.79395C9.94446 3.6675 9.84013 3.57535 9.71456 3.55624L6.6635 3.09198L5.29891 0.194703Z" fill="#E9A71D"/>
</svg>
