<svg width="21" height="22" viewBox="0 0 21 22" fill="none" xmlns="http://www.w3.org/2000/svg">
<path fill-rule="evenodd" clip-rule="evenodd" d="M14.7558 20.6112H6.40798C3.34162 20.6112 0.989217 19.5036 1.65741 15.0459L2.43544 9.00476C2.84734 6.7805 4.26611 5.92924 5.51096 5.92924H15.6894C16.9526 5.92924 18.289 6.84458 18.765 9.00476L19.543 15.0459C20.1105 19.0002 17.8222 20.6112 14.7558 20.6112Z" stroke="#D1D3D6" stroke-width="1.5" stroke-linecap="round" stroke-linejoin="round"/>
<path d="M14.893 5.70957C14.893 3.32349 12.9588 1.3892 10.5727 1.3892V1.3892C9.42368 1.38433 8.32007 1.83736 7.50588 2.64811C6.69169 3.45887 6.234 4.56055 6.23401 5.70957H6.23401" stroke="#D1D3D6" stroke-width="1.5" stroke-linecap="round" stroke-linejoin="round"/>
<path d="M13.5384 10.213H13.4926" stroke="#D1D3D6" stroke-width="1.5" stroke-linecap="round" stroke-linejoin="round"/>
<path d="M7.70772 10.213H7.66196" stroke="#D1D3D6" stroke-width="1.5" stroke-linecap="round" stroke-linejoin="round"/>
</svg>
